<?xml version="1.0" encoding="utf-8"?>
<!-- Generator: Adobe Illustrator 18.0.0, SVG Export Plug-In . SVG Version: 6.00 Build 0)  -->
<!DOCTYPE svg PUBLIC "-//W3C//DTD SVG 1.1//EN" "http://www.w3.org/Graphics/SVG/1.1/DTD/svg11.dtd">
<svg version="1.1" id="圖層_1" xmlns="http://www.w3.org/2000/svg" xmlns:xlink="http://www.w3.org/1999/xlink" x="0px" y="0px"
	 viewBox="0 0 180 180" enable-background="new 0 0 180 180" xml:space="preserve">
<g>
	<g>
		<path fill="#00B960" d="M78.3,74.1c-1.9,2.7-4.8,4.8-8.9,6.3c-4,1.5-8.5,2.3-13.5,2.3c-5,0-9.5-1.2-13.4-3.6
			c-3.9-2.4-7-5.8-9.1-10.3c-2.2-4.4-3.2-9.5-3.3-15.2v-8.1c0-8.9,2.3-16,6.8-21.1s10.6-7.8,18.2-7.8c6.6,0,12,1.7,16,5.1
			c4,3.4,6.4,8,7.2,13.9h-5.4c-0.8-4.7-2.7-8.3-5.8-10.7c-3-2.4-7-3.7-12-3.7c-6,0-10.8,2.1-14.3,6.4c-3.5,4.3-5.3,10.3-5.3,18.1
			v7.6c0,4.9,0.8,9.2,2.5,13c1.7,3.8,4.1,6.7,7.2,8.7C48.3,77,51.9,78,56,78c4.7,0,8.7-0.7,12.1-2.2c2.2-1,3.8-2.1,4.9-3.4V55.8
			H55.6v-4.6h22.7V74.1z"/>
		<path fill="#00B960" d="M137.5,63.6h-29.2l-6.6,18.1H96l24.4-64.3h5.2l24.3,64.3h-5.7L137.5,63.6z M110,59h25.8l-12.9-35L110,59z"
			/>
		<path fill="#00B960" d="M78.3,155c-1.9,2.7-4.8,4.8-8.9,6.3c-4,1.5-8.5,2.3-13.5,2.3c-5,0-9.5-1.2-13.4-3.6
			c-3.9-2.4-7-5.8-9.1-10.3c-2.2-4.4-3.2-9.5-3.3-15.2v-8.1c0-8.9,2.3-16,6.8-21.1c4.5-5.2,10.6-7.8,18.2-7.8c6.6,0,12,1.7,16,5.1
			c4,3.4,6.4,8,7.2,13.9h-5.4c-0.8-4.7-2.7-8.3-5.8-10.7c-3-2.4-7-3.7-12-3.7c-6,0-10.8,2.1-14.3,6.4c-3.5,4.3-5.3,10.3-5.3,18.1
			v7.6c0,4.9,0.8,9.2,2.5,13c1.7,3.8,4.1,6.7,7.2,8.7c3.1,2.1,6.7,3.1,10.7,3.1c4.7,0,8.7-0.7,12.1-2.2c2.2-1,3.8-2.1,4.9-3.4v-16.6
			H55.6v-4.6h22.7V155z"/>
		<path fill="#00B960" d="M137.5,144.6h-29.2l-6.6,18.1H96l24.4-64.3h5.2l24.3,64.3h-5.7L137.5,144.6z M110,140h25.8l-12.9-35
			L110,140z"/>
	</g>
	<polygon fill="#00B960" points="4.5,175.5 4.5,94.8 0,90.3 0,180 89.7,180 85.2,175.5 	"/>
	<polygon fill="#00B960" points="180,0 90.3,0 94.8,4.5 175.5,4.5 175.5,85.2 180,89.7 	"/>
</g>
</svg>
